<?xml version="1.0" encoding="UTF-8" standalone="no"?>
<!-- Created with Inkscape (http://www.inkscape.org/) -->

<svg
   width="256mm"
   height="256mm"
   viewBox="0 0 256 256"
   version="1.1"
   id="svg1"
   inkscape:version="1.4 (86a8ad7, 2024-10-11)"
   sodipodi:docname="BobroGlyphs.svg"
   xmlns:inkscape="http://www.inkscape.org/namespaces/inkscape"
   xmlns:sodipodi="http://sodipodi.sourceforge.net/DTD/sodipodi-0.dtd"
   xmlns="http://www.w3.org/2000/svg"
   xmlns:svg="http://www.w3.org/2000/svg">
  <sodipodi:namedview
     id="namedview1"
     pagecolor="#ffffff"
     bordercolor="#000000"
     borderopacity="0.25"
     inkscape:showpageshadow="false"
     inkscape:pageopacity="0.0"
     inkscape:pagecheckerboard="0"
     inkscape:deskcolor="#d1d1d1"
     inkscape:document-units="mm"
     showguides="false"
     showgrid="true"
     inkscape:zoom="1.14"
     inkscape:cx="103.94737"
     inkscape:cy="179.38596"
     inkscape:window-width="3440"
     inkscape:window-height="1377"
     inkscape:window-x="1912"
     inkscape:window-y="-8"
     inkscape:window-maximized="1"
     inkscape:current-layer="layer1">
    <inkscape:grid
       id="grid1"
       units="mm"
       originx="0"
       originy="0"
       spacingx="1.9999999"
       spacingy="1.9999999"
       empcolor="#0099e5"
       empopacity="0.30196078"
       color="#0099e5"
       opacity="0.14901961"
       empspacing="1"
       enabled="true"
       visible="true"
       dotted="true" />
  </sodipodi:namedview>
  <defs
     id="defs1">
    <rect
       x="2.7546494"
       y="218.99464"
       width="296.12482"
       height="207.97604"
       id="rect1" />
  </defs>
  <g
     inkscape:label="Layer 1"
     inkscape:groupmode="layer"
     id="layer1">
    <text
       xml:space="preserve"
       transform="scale(0.26458333)"
       id="text1"
       style="text-align:start;writing-mode:lr-tb;direction:ltr;white-space:pre;shape-inside:url(#rect1);fill:#00d455" />
    <path
       id="rect2"
       style="stroke-width:0.264583"
       d="m 7.9999995,23.999998 h 3.9999995 v 4 H 7.9999995 Z" />
    <path
       id="rect2-8"
       style="stroke-width:0.264583"
       d="m 12,19.999999 h 4 v 4 h -4 z" />
    <path
       id="rect2-5"
       style="stroke-width:0.264583"
       d="M 16.000001,19.999999 H 20 v 4 h -3.999999 z" />
    <path
       id="rect2-1"
       style="stroke-width:0.264583"
       d="m 19.999999,23.999999 h 4 v 4 h -4 z" />
    <path
       id="rect2-7"
       style="stroke-width:0.264583"
       d="m 20,27.999999 h 3.999999 v 4 H 20 Z" />
    <path
       id="rect2-2"
       style="stroke-width:0.264583"
       d="m 8.0000002,27.999999 h 3.9999988 v 4 H 8.0000002 Z" />
    <path
       id="rect2-16"
       style="stroke-width:0.264583"
       d="m 12,31.999999 h 4 v 4 h -4 z" />
    <path
       id="rect2-6"
       style="stroke-width:0.264583"
       d="m 16.000001,31.999997 h 4 v 4 h -4 z" />
    <path
       id="rect2-27"
       style="stroke-width:0.264583"
       d="m 20,19.999999 h 3.999999 v 4 H 20 Z" />
    <path
       id="rect2-3"
       style="stroke-width:0.264583"
       d="m 20,31.999997 h 3.999999 v 4 H 20 Z" />
    <path
       id="rect2-34"
       style="stroke-width:0.264583"
       d="m 27.999998,23.999998 h 4 v 4 h -4 z" />
    <path
       id="rect2-8-1"
       style="stroke-width:0.264583"
       d="m 31.999999,19.999999 h 4 v 4 h -4 z" />
    <path
       id="rect2-5-1"
       style="stroke-width:0.264583"
       d="m 36,19.999999 h 3.999999 v 4 H 36 Z" />
    <path
       id="rect2-1-3"
       style="stroke-width:0.264583"
       d="m 39.999998,23.999999 h 4 v 4 h -4 z" />
    <path
       id="rect2-7-8"
       style="stroke-width:0.264583"
       d="m 39.999999,27.999999 h 3.999999 v 4 h -3.999999 z" />
    <path
       id="rect2-2-7"
       style="stroke-width:0.264583"
       d="m 27.999999,27.999999 h 3.999999 v 4 h -3.999999 z" />
    <path
       id="rect2-16-4"
       style="stroke-width:0.264583"
       d="m 31.999999,31.999999 h 4 v 4 h -4 z" />
    <path
       id="rect2-6-2"
       style="stroke-width:0.264583"
       d="m 36,31.999997 h 4 v 4 h -4 z" />
    <path
       id="rect2-27-7"
       style="stroke-width:0.264583"
       d="m 27.999998,19.999999 h 3.999999 v 4 h -3.999999 z" />
    <path
       id="rect2-3-7"
       style="stroke-width:0.264583"
       d="m 27.999999,31.999999 h 3.999999 v 4 h -3.999999 z" />
    <path
       id="rect2-3-7-9"
       style="stroke-width:0.264583"
       d="m 28,16 h 3.999999 v 4 H 28 Z" />
    <path
       id="rect2-3-7-0"
       style="stroke-width:0.264583"
       d="m 28,12.000001 h 3.999999 v 4 H 28 Z" />
    <path
       id="rect2-3-7-02"
       style="stroke-width:0.264583"
       d="m 28,8.000002 h 3.999999 v 4 H 28 Z" />
    <path
       id="rect2-50"
       style="stroke-width:0.264583"
       d="m 47.999999,23.999998 h 3.999999 v 4 h -3.999999 z" />
    <path
       id="rect2-8-9"
       style="stroke-width:0.264583"
       d="m 51.999999,19.999999 h 4 v 4 h -4 z" />
    <path
       id="rect2-5-0"
       style="stroke-width:0.264583"
       d="m 56,19.999999 h 3.999999 v 4 H 56 Z" />
    <path
       id="rect2-5-0-0"
       style="stroke-width:0.264583"
       d="m 60,19.999999 h 3.999999 v 4 H 60 Z" />
    <path
       id="rect2-2-1"
       style="stroke-width:0.264583"
       d="m 47.999999,27.999999 h 3.999999 v 4 h -3.999999 z" />
    <path
       id="rect2-16-3"
       style="stroke-width:0.264583"
       d="m 51.999999,31.999999 h 4 v 4 h -4 z" />
    <path
       id="rect2-6-8"
       style="stroke-width:0.264583"
       d="m 56,31.999997 h 4 v 4 h -4 z" />
    <path
       id="rect2-5-0-8"
       style="stroke-width:0.264583"
       d="m 59.999999,31.999999 h 3.999999 v 4 h -3.999999 z" />
    <path
       id="rect2-34-3"
       style="stroke-width:0.264583"
       d="m 67.999998,23.999999 h 4 v 4 h -4 z" />
    <path
       id="rect2-8-1-7"
       style="stroke-width:0.264583"
       d="m 71.999999,20 h 4 v 4 h -4 z" />
    <path
       id="rect2-5-1-8"
       style="stroke-width:0.264583"
       d="m 76,20 h 3.999999 v 4 H 76 Z" />
    <path
       id="rect2-1-3-8"
       style="stroke-width:0.264583"
       d="m 79.999998,24 h 4 v 4 h -4 z" />
    <path
       id="rect2-7-8-2"
       style="stroke-width:0.264583"
       d="m 79.999999,28 h 3.999999 v 4 h -3.999999 z" />
    <path
       id="rect2-2-7-9"
       style="stroke-width:0.264583"
       d="m 67.999999,28 h 3.999999 v 4 h -3.999999 z" />
    <path
       id="rect2-16-4-1"
       style="stroke-width:0.264583"
       d="m 71.999999,32 h 4 v 4 h -4 z" />
    <path
       id="rect2-6-2-3"
       style="stroke-width:0.264583"
       d="m 76,31.999998 h 4 v 4 h -4 z" />
    <path
       id="rect2-27-7-5"
       style="stroke-width:0.264583"
       d="m 79.999996,19.999997 h 3.999999 v 4 h -3.999999 z" />
    <path
       id="rect2-3-7-98"
       style="stroke-width:0.264583"
       d="m 79.999999,31.999998 h 3.999999 v 4 h -3.999999 z" />
    <path
       id="rect2-3-7-9-4"
       style="stroke-width:0.264583"
       d="m 79.999998,15.999998 h 3.999999 v 4 h -3.999999 z" />
    <path
       id="rect2-3-7-0-0"
       style="stroke-width:0.264583"
       d="m 79.999998,11.999999 h 3.999999 v 4 h -3.999999 z" />
    <path
       id="rect2-3-7-02-7"
       style="stroke-width:0.264583"
       d="m 79.999998,8.0000007 h 3.999999 V 12 h -3.999999 z" />
    <circle
       id="path23"
       style="fill:#000000;stroke:#000000;stroke-width:0.264583"
       cx="-124.86476"
       cy="73.572739"
       r="0.030914247" />
    <path
       style="fill:#000000;stroke-width:0.264583"
       id="path24"
       d="m -134.48141,69.698948 c -6.87151,0.929828 -13.699,2.233121 -20.36044,4.17893 -2.00642,0.586079 -3.98064,1.277284 -5.97096,1.915925 -3.84731,1.548757 -6.28913,2.324444 -9.77684,4.47516 -2.13941,1.319278 -4.42023,3.063015 -5.71571,5.302959 -1.62991,2.818193 -1.21246,3.928924 -1.23259,7.086269 0.40272,1.315823 0.6226,2.702195 1.20815,3.947467 2.09787,4.461542 6.02021,7.627412 10.32647,9.814072 2.58506,1.31264 5.19673,2.60939 7.93539,3.56086 1.59527,0.55423 3.32064,0.61769 4.98096,0.92654 1.53749,0.0405 3.07497,0.0811 4.61245,0.12161 0,0 -2.8826,-2.10699 -2.8826,-2.10699 v 0 c -1.51457,-0.047 -3.02913,-0.0941 -4.5437,-0.14112 -1.64306,-0.32086 -3.27617,-0.69778 -4.9292,-0.96259 -0.6233,-0.0999 -1.31099,0.12333 -1.8893,-0.12972 -4.15153,-1.81664 -8.33141,-5.42114 -10.3387,-9.538731 -0.58787,-1.205902 -0.81776,-2.55547 -1.22664,-3.833207 -0.0116,-3.052667 -0.42671,-4.122356 1.12101,-6.861535 1.24223,-2.198534 3.45658,-3.941048 5.53108,-5.250367 3.46826,-2.188991 5.79043,-2.920426 9.64144,-4.491141 1.98702,-0.633143 3.95596,-1.326078 5.96105,-1.899423 6.77774,-1.938062 13.74712,-3.174714 20.76217,-3.826528 z" />
    <path
       style="fill:#000000;stroke-width:0.264583"
       id="path25"
       d="m -116.76546,89.426946 c -0.60624,-0.05005 -1.21112,-0.179605 -1.81871,-0.150135 -2.44943,0.118803 -5.66878,0.711083 -7.92323,1.510493 -3.00325,1.064926 -6.13436,2.604148 -8.09186,5.274018 -0.99233,1.353466 -1.38048,3.05952 -2.07072,4.589278 0.61867,2.13003 0.85238,4.41207 1.85601,6.39007 2.60757,5.13917 6.88705,8.86809 10.82904,12.8895 0,0 2.95212,1.22558 2.95212,1.22558 v 0 c -3.97912,-4.02794 -8.06528,-7.52631 -10.71844,-12.66392 -0.97517,-1.88833 -1.22649,-4.06973 -1.83973,-6.1046 0.66715,-1.4849 1.0343,-3.145275 2.00145,-4.454719 1.92891,-2.611562 5.06191,-4.120568 8.02298,-5.112316 2.50506,-0.839015 5.40271,-1.252482 8.05395,-1.262967 0.63213,-0.0024 1.25468,0.15539 1.88202,0.233087 z" />
    <path
       style="fill:#000000;stroke-width:0.264583"
       id="path26"
       d="m -75.824399,98.547837 c -0.498002,0.147264 -1.007946,0.258934 -1.49401,0.441793 -0.810789,0.30502 -1.623779,0.616273 -2.390452,1.01955 -4.120877,2.16758 -7.763184,5.28669 -10.716598,8.87629 -1.265973,1.53867 -2.311694,3.24605 -3.467542,4.86908 -0.865987,1.89196 -1.940568,3.70173 -2.597957,5.67589 -1.96714,5.90737 -2.016818,11.95936 0.248227,17.78667 1.565902,4.02862 2.844736,5.09475 5.474163,8.28259 0,0 3.277576,1.39085 3.277576,1.39085 v 0 c -2.687003,-3.13522 -4.001376,-4.18901 -5.62674,-8.18499 -2.33435,-5.73904 -2.346995,-11.73746 -0.39751,-17.59376 0.650057,-1.95279 1.723802,-3.73797 2.585704,-5.60696 1.158682,-1.60132 2.203294,-3.29173 3.476045,-4.80398 2.982643,-3.54391 6.683055,-6.58845 10.865236,-8.60202 0.785051,-0.37797 1.615266,-0.65813 2.444269,-0.92631 0.503716,-0.16295 1.030578,-0.243 1.545868,-0.3645 z" />
    <path
       style="fill:#000000;stroke-width:0.264583"
       id="path27"
       d="m -74.448849,46.553154 c -0.286568,4.424764 -0.08657,8.857567 0.138078,13.279479 0.257355,4.833962 0.719402,9.653866 1.196147,14.47019 0.0043,0.04412 0.162597,1.763117 0.215664,1.969719 0.478663,1.863498 3.914236,2.281844 4.890501,2.504218 0.723249,0.164743 1.461471,-0.255312 2.190146,-0.394097 1.045377,-0.199104 2.087878,-0.41302 3.131818,-0.619529 6.3755,-1.252599 12.839668,-1.940515 19.293543,-2.635123 0,0 -2.863204,-2.033289 -2.863204,-2.033289 v 0 c -6.503752,0.712544 -13.016728,1.399096 -19.461517,2.550118 -1.067004,0.185777 -2.130938,0.390144 -3.201011,0.557334 -0.740053,0.115625 -2.187824,-0.457023 -2.228184,0.29092 -0.05135,0.951658 1.383605,1.31228 2.108275,1.931262 0.137533,0.117475 -0.276794,-0.252902 -0.341212,-0.421917 -0.07296,-0.191411 -0.276202,-1.96614 -0.278675,-1.986196 -0.58624,-4.82302 -1.087189,-9.659083 -1.333736,-14.512821 -0.199559,-4.370801 -0.398169,-8.762024 0.04128,-13.125953 z" />
    <path
       style="fill:#000000;stroke-width:0.264583"
       id="path28"
       d="m 16.108009,21.002164 c -0.908018,-0.07168 -1.85109,-0.328267 -2.748515,-0.04252 -0.597103,0.190125 -0.833358,0.4134 -1.347098,0.769172 -1.629751,1.360992 -2.1523524,2.683154 -2.7258249,4.667618 -0.4340727,1.50906 -0.4484671,3.051499 -0.1810168,4.586344 0.3054078,1.388901 1.2255237,2.092129 2.3639627,2.819143 2.733618,1.747081 4.180244,2.657237 7.057972,3.152765 1.31738,0.16605 2.514407,-0.360469 3.652171,-0.958228 1.291955,-0.770115 2.414516,-1.794746 3.443614,-2.883879 0.707944,-0.807347 1.184272,-1.775529 1.179091,-2.867435 -0.0011,-0.199959 -0.03364,-0.398505 -0.05047,-0.59776 -0.188775,-1.249807 -0.910755,-2.281489 -1.622191,-3.289794 -0.759411,-0.969376 -1.491734,-1.960931 -2.264559,-2.919663 -1.317427,-1.724402 -3.452852,-2.631379 -5.495317,-3.258053 -0.09763,-0.02195 -0.198888,-0.100167 -0.292895,-0.06586 -0.229766,0.08384 -0.261209,0.571102 -0.08515,0.689799 2.222668,1.498462 3.031845,1.785171 4.859608,2.649247 1.268245,0.612134 3.539095,1.923793 -2.077057,-1.240408 -0.110348,-0.06217 0.215709,0.132914 0.321072,0.203203 0.326931,0.218101 0.256059,0.172654 0.536254,0.432632 0.669879,0.868539 0.966385,1.944144 1.207526,2.995841 0.27516,1.123617 0.415007,2.269525 0.49284,3.421526 0.05195,0.990238 0.04998,1.982198 0.04889,2.97347 0.0018,0.733274 -0.04986,1.464876 0.06661,2.191109 0.218879,0.863577 0.686621,1.619962 1.243548,2.303521 0,0 3.644909,1.546873 3.644909,1.546873 v 0 c -0.184139,-0.21241 -0.387906,-0.40921 -0.552921,-0.636796 -0.325013,-0.448252 -0.565322,-0.968153 -0.766101,-1.480661 -0.163917,-0.700265 -0.103522,-1.413166 -0.111667,-2.128168 -5.56e-4,-0.999332 0.0033,-1.999211 -0.04196,-2.997772 -0.0676,-1.171244 -0.19986,-2.338993 -0.477692,-3.481104 -0.228959,-1.101957 -0.523546,-2.189196 -1.097445,-3.168719 -0.241247,-0.32267 -0.472661,-0.538536 -0.823163,-0.74405 -1.558383,-0.913743 -3.064694,-1.896268 -4.703853,-2.647619 -0.168117,-0.07656 -0.336576,-0.152367 -0.504351,-0.229672 -0.173438,-0.07991 -0.681794,-0.34226 -0.519276,-0.241984 0.971687,0.599549 2.023266,1.073954 2.949551,1.741508 0.692896,0.499356 -0.76821,-0.129766 -0.454965,0.262422 0.05785,0.07243 0.178319,0.05071 0.267479,0.07606 1.536306,0.505021 2.535307,1.318881 -2.077361,-1.441655 -0.102101,-0.0611 0.215932,0.103859 0.310574,0.17598 0.14447,0.110092 0.387754,0.427342 0.491286,0.554143 0.812087,0.926924 1.505061,1.953727 2.2947,2.900036 0.697701,0.953173 1.432178,1.929756 1.696486,3.10334 0.204023,1.368755 -0.06082,2.105871 -0.950064,3.17147 -1.001715,1.057767 -2.100766,2.047449 -3.374055,2.768785 -1.108908,0.547182 -2.252813,0.982361 -3.510149,0.742521 -0.614504,-0.123375 -1.21632,-0.261707 -1.810737,-0.464121 -1.303738,-0.443952 -3.7483807,-1.91017 1.569046,1.106641 -1.05738,-0.619326 -2.135526,-1.257562 -2.482237,-2.5156 -0.328528,-1.474751 -0.34231,-2.971596 0.06165,-4.438616 0.523298,-1.856774 1.036967,-3.187914 2.599643,-4.419237 0.50367,-0.314528 0.682529,-0.487794 1.259687,-0.621483 0.883765,-0.204708 1.811133,0.06051 2.687178,0.166188 z" />
    <path
       style="fill:#000000;stroke-width:0.264583"
       id="path29"
       d="m 28.63927,9.4972168 c 0.02037,1.9874192 0.164401,3.9701422 0.292195,5.9526682 0.176241,1.875124 0.298312,3.75386 0.369027,5.635746 0.01265,1.589745 0.180589,3.171151 0.318879,4.753101 0.114922,1.054235 0.273103,2.102897 0.357825,3.160254 0.05093,0.788702 0.05438,1.579357 0.05425,2.369371 0.0019,0.692581 5.29e-4,1.385149 -0.0024,2.077722 -0.02294,0.653442 0.08982,1.299181 0.269576,1.924796 0.63867,1.541479 3.024788,2.077204 4.170386,2.595491 0.01736,0.0079 0.791133,-0.185936 0.795867,-0.187102 0.858745,-0.283187 1.729708,-0.538332 2.5704,-0.873578 0.770094,-0.236315 1.429073,-0.70282 2.126608,-1.0907 0.586975,-0.362749 1.170119,-0.748776 1.698246,-1.194514 0.769504,-0.613569 1.358101,-1.380048 1.895353,-2.196454 0.610714,-0.997583 0.899999,-1.815267 0.941089,-2.987186 -0.08556,-1.441664 -0.735333,-2.73341 -1.409465,-3.980672 -0.542165,-0.960711 -1.128019,-1.891571 -1.87022,-2.709456 -0.615524,-0.638427 -1.293262,-1.212195 -2.002356,-1.743245 -1.413584,-0.932004 -0.843656,-0.565664 -3.973333,-2.274406 -0.08498,-0.0464 -0.186274,-0.0529 -0.279172,-0.08018 -0.413046,-0.121285 -0.254987,-0.124629 -0.495295,0.43167 0.605954,0.428267 1.1904,0.877341 1.741302,1.378255 0.751012,0.726581 1.448732,1.501043 2.222469,2.204143 1.331375,1.156083 0.926224,0.840275 4.020478,2.437134 0.104413,0.05389 0.236585,-0.0245 0.346009,-0.06732 0.420055,-0.16434 0.654619,-0.542197 0.90759,-0.888403 0.266898,-0.37629 0.574161,-0.717089 0.832927,-1.099253 0,0 -3.427098,-2.010199 -3.427098,-2.010199 v 0 c -0.252386,0.377513 -0.552434,0.716705 -0.812903,1.088611 -0.112554,0.14722 -0.283239,0.410447 -0.461891,0.508757 -0.286793,0.157819 -0.527347,-0.05085 -0.475443,-0.0191 3.530809,2.160131 3.959653,2.529956 2.730426,1.545127 -0.250677,-0.227275 -0.516718,-0.437591 -0.761844,-0.670842 -0.511464,-0.486684 -0.946023,-1.053632 -1.465009,-1.533576 -0.25064,-0.230376 -0.486058,-0.477179 -0.74051,-0.703335 -0.406109,-0.360947 -0.187129,-0.11923 -0.601874,-0.429062 -0.335325,-0.250502 -0.05512,-0.126495 -0.355005,-0.235509 -0.102719,0.13927 -0.218993,0.269498 -0.30816,0.417812 -0.0075,0.01244 0.109849,0.03928 0.236426,0.08957 0.0853,0.03389 0.331393,0.156735 0.252508,0.109816 -2.50258,-1.488461 -4.254273,-2.424638 -2.819834,-1.654361 0.733118,0.489919 1.397921,1.070466 2.042258,1.671001 0.222541,0.234737 0.464788,0.452042 0.669136,0.702776 0.483294,0.592993 0.830345,1.297566 1.257091,1.928722 0.682334,1.179169 1.328272,2.41417 1.484784,3.787148 0.0066,1.112533 -0.263777,1.841481 -0.834435,2.789772 -0.519372,0.783672 -1.09433,1.510387 -1.847845,2.085046 -0.526264,0.413676 -1.078381,0.80209 -1.656585,1.139285 -0.681654,0.384133 -1.340147,0.813425 -2.095318,1.044686 -0.830299,0.312619 -1.677148,0.593781 -2.534507,0.82014 -0.128786,0.02225 -0.256132,0.05567 -0.386355,0.06677 -0.109022,0.0093 -0.41951,-0.06613 -0.328205,-0.0058 1.011769,0.668198 2.096638,1.219044 3.128745,1.855378 0.181293,0.111773 -0.904155,-0.372208 -0.529613,-0.378196 -0.235051,-0.568473 -0.331486,-1.193122 -0.330579,-1.806744 -0.0011,-0.69319 7.94e-4,-1.386361 0.0024,-2.079546 -0.0046,-0.799608 -0.01042,-1.599525 -0.05093,-2.398291 -0.06793,-1.066925 -0.246517,-2.120617 -0.382968,-3.180223 -0.141986,-1.577272 -0.311783,-3.153565 -0.334873,-4.738603 -0.06949,-1.887465 -0.197069,-3.772281 -0.376639,-5.652548 -0.136237,-1.964946 -0.304957,-3.932585 -0.254389,-5.904125 z" />
    <path
       style="fill:#000000;stroke-width:0.264583"
       id="path30"
       d="m 59.028999,20.381966 c -0.958837,-0.03611 -1.922963,-0.117314 -2.882921,-0.05293 -0.373089,0.02502 -1.07917,0.132896 -1.456677,0.186974 -1.090147,0.1646 -2.126486,0.555512 -2.995515,1.238051 -0.652012,0.570389 -1.089538,1.307381 -1.459063,2.079463 -0.297715,0.765637 -0.522915,1.560924 -0.749461,2.350671 -0.25054,0.945249 -0.463307,1.888274 -0.501095,2.867103 -0.02323,0.943414 0.370435,1.763921 0.848318,2.549109 0.293163,0.466109 0.644181,0.879891 1.124773,1.160828 3.593425,2.100593 2.491605,1.58084 4.175064,2.352841 0.789969,0.410398 1.636821,0.673701 2.485485,0.930731 1.112882,0.282122 2.261341,0.328535 3.402661,0.375377 1.016606,0.05626 2.028796,0.02633 3.034794,-0.130021 0.785855,-0.06146 1.455738,-0.464082 2.150597,-0.789451 0,0 -3.317719,-2.188186 -3.317719,-2.188186 v 0 c -0.655955,0.330681 -1.315328,0.644946 -2.063393,0.697849 -0.992589,0.120293 -1.988978,0.128797 -2.987233,0.07564 -1.127424,-0.05376 -2.261978,-0.129757 -3.348582,-0.460208 -0.842262,-0.262634 -1.665769,-0.577549 -2.451611,-0.981665 -1.449528,-0.745257 -0.13463,-0.07739 2.613282,1.542812 0.123782,0.07298 -0.258913,-0.125521 -0.382458,-0.198909 -0.260625,-0.15481 -0.367908,-0.244724 -0.563973,-0.47308 -0.08805,-0.10255 -0.16443,-0.214561 -0.246644,-0.321842 -0.484759,-0.709583 -0.924341,-1.452322 -0.951373,-2.335789 0.01214,-0.968417 0.203134,-1.845847 0.45163,-2.77975 0.220869,-0.769194 0.460754,-1.536218 0.723178,-2.291569 0.336182,-0.718009 0.7444,-1.40221 1.362739,-1.91524 0.846921,-0.614163 1.823704,-0.951215 2.859754,-1.085936 1.434524,-0.188512 2.873198,-0.200363 4.314262,-0.05347 z" />
    <path
       style="fill:#000000;stroke-width:0.264583"
       id="path31"
       d="m 78.06832,20.111696 c -0.865923,-0.07449 -1.730513,-0.248389 -2.60127,-0.266192 -0.531423,-0.01087 -0.750937,0.04126 -1.26968,0.115147 -1.464823,0.404543 -2.665341,1.388857 -3.707259,2.45899 -0.531876,0.596875 -1.079558,1.211623 -1.401043,1.954311 -0.190534,0.44017 -0.213085,0.628415 -0.323977,1.095835 -0.233868,1.10051 -0.122992,2.184256 0.252651,3.233604 0.458343,1.011301 1.324538,1.74624 2.194724,2.399763 2.091364,1.453401 4.233701,2.92748 6.623573,3.83481 0.607161,0.193829 1.269469,0.580546 1.934033,0.492517 0.124944,-0.01656 0.243258,-0.06609 0.364887,-0.09913 0.769596,-0.414809 1.444395,-1.017747 2.036466,-1.656975 0.927053,-1.156909 1.29023,-2.589331 1.572363,-4.013356 0.280919,-1.69473 0.534202,-3.394271 0.783442,-5.094048 0.328123,-1.602041 0.41687,-3.222996 0.417431,-4.853398 -0.0122,-1.254983 -0.04256,-2.509686 -0.06943,-3.764415 -0.01553,-0.702774 -0.01812,-1.405726 -0.01778,-2.108642 -0.0092,-0.933789 -0.01474,-1.867596 -0.0044,-2.801393 0.121576,-1.5568724 1.264844,-0.312466 -3.350437,-1.8689703 -0.130667,-0.044068 0.08208,0.2637813 0.109681,0.3988887 0.04179,0.2045639 0.126751,0.9149306 0.149598,1.0964226 0.159041,1.263239 0.21369,2.53558 0.245726,3.807309 0.05726,1.151776 0.01445,2.290612 -0.158914,3.429898 -0.244642,1.524694 -0.50364,3.047185 -0.722834,4.576017 -0.145367,1.155252 -0.329136,2.304045 -0.419846,3.465411 -0.09512,1.102197 -0.06618,2.204173 0.0473,3.30303 0.08583,0.923687 0.215194,1.636919 0.662697,2.452589 1.096642,1.641274 3.082046,2.444533 4.850445,3.21844 0,0 -3.099634,-2.472026 -3.099634,-2.472026 v 0 c -1.330015,-0.703011 -0.880242,-0.471464 2.731894,1.620316 0.112456,0.06512 -0.222808,-0.134482 -0.327617,-0.211309 -0.328195,-0.240573 -0.289375,-0.233617 -0.53485,-0.544912 -0.0618,-0.100203 -0.329274,-0.526272 -0.384532,-0.644332 -0.243917,-0.521129 -0.258149,-1.111719 -0.361262,-1.667537 -0.138137,-1.074134 -0.159835,-2.153967 -0.07762,-3.23442 0.0822,-1.156843 0.253953,-2.301664 0.390057,-3.452801 0.20483,-1.527442 0.468101,-3.045706 0.725546,-4.564815 0.196993,-1.158615 0.271999,-2.317194 0.196863,-3.492528 -0.03338,-1.28212 -0.08109,-2.564883 -0.22764,-3.840011 -0.01363,-0.117631 -0.152471,-1.549434 -0.192632,-1.577216 -2.097704,-1.4511229 -3.600048,-3.5305854 -3.78193,-1.5961749 0.0097,0.9326249 0.0034,1.8652299 -0.0047,2.7978479 0.0033,0.707229 0.0065,1.414507 0.0231,2.121575 0.03623,1.25932 0.103727,2.517745 0.116287,3.77774 0.0051,1.61113 -0.08317,3.212488 -0.404813,4.796104 -0.240257,1.696215 -0.483251,3.39276 -0.761211,5.083064 -0.264203,1.349356 -0.604449,2.714807 -1.498563,3.800374 -0.546939,0.565118 -1.158521,1.16545 -1.907987,1.437328 -0.759143,0.04276 -1.458138,-0.287981 -2.152145,-0.560091 -0.162081,-0.07104 -0.32662,-0.136726 -0.486243,-0.213133 -0.916681,-0.438785 -3.810638,-2.173801 2.286211,1.365213 0.1914,0.111101 -0.386516,-0.216355 -0.571947,-0.337156 -0.186939,-0.121782 -0.361296,-0.261892 -0.544052,-0.389866 -0.178178,-0.124769 -0.359124,-0.245544 -0.538686,-0.368316 -0.867916,-0.587912 -1.72198,-1.277625 -2.268466,-2.185903 -0.427736,-0.964837 -0.579239,-1.978414 -0.368824,-3.024788 0.09253,-0.422579 0.113313,-0.612095 0.279733,-1.009369 0.296513,-0.707841 0.822275,-1.292574 1.322298,-1.860797 0.999048,-1.007938 2.14604,-1.944516 3.571621,-2.230252 1.283919,-0.124252 2.554729,0.06004 3.826602,0.241961 z" />
  </g>
</svg>
