<?xml version="1.0" encoding="UTF-8" standalone="no"?>
<!-- Created with Inkscape (http://www.inkscape.org/) -->

<svg
   width="256mm"
   height="256mm"
   viewBox="0 0 256 256"
   version="1.1"
   id="svg1"
   inkscape:version="1.4 (86a8ad7, 2024-10-11)"
   sodipodi:docname="BobroGlyphs.svg"
   xmlns:inkscape="http://www.inkscape.org/namespaces/inkscape"
   xmlns:sodipodi="http://sodipodi.sourceforge.net/DTD/sodipodi-0.dtd"
   xmlns="http://www.w3.org/2000/svg"
   xmlns:svg="http://www.w3.org/2000/svg">
  <sodipodi:namedview
     id="namedview1"
     pagecolor="#ffffff"
     bordercolor="#000000"
     borderopacity="0.25"
     inkscape:showpageshadow="false"
     inkscape:pageopacity="0.0"
     inkscape:pagecheckerboard="0"
     inkscape:deskcolor="#d1d1d1"
     inkscape:document-units="mm"
     showguides="false"
     showgrid="true"
     inkscape:zoom="1.14"
     inkscape:cx="103.94737"
     inkscape:cy="249.5614"
     inkscape:window-width="1260"
     inkscape:window-height="1017"
     inkscape:window-x="2175"
     inkscape:window-y="192"
     inkscape:window-maximized="0"
     inkscape:current-layer="layer1">
    <inkscape:grid
       id="grid1"
       units="mm"
       originx="0"
       originy="0"
       spacingx="1.9999999"
       spacingy="1.9999999"
       empcolor="#0099e5"
       empopacity="0.30196078"
       color="#0099e5"
       opacity="0.14901961"
       empspacing="1"
       enabled="true"
       visible="true"
       dotted="true" />
  </sodipodi:namedview>
  <defs
     id="defs1">
    <rect
       x="2.7546494"
       y="218.99464"
       width="296.12482"
       height="207.97604"
       id="rect1" />
  </defs>
  <g
     inkscape:label="Layer 1"
     inkscape:groupmode="layer"
     id="layer1">
    <text
       xml:space="preserve"
       transform="scale(0.26458333)"
       id="text1"
       style="text-align:start;writing-mode:lr-tb;direction:ltr;white-space:pre;shape-inside:url(#rect1);fill:#00d455" />
    <path
       id="rect2"
       style="stroke-width:0.264583"
       d="m 7.9999995,23.999998 h 3.9999995 v 4 H 7.9999995 Z" />
    <path
       id="rect2-8"
       style="stroke-width:0.264583"
       d="m 12,19.999999 h 4 v 4 h -4 z" />
    <path
       id="rect2-5"
       style="stroke-width:0.264583"
       d="M 16.000001,19.999999 H 20 v 4 h -3.999999 z" />
    <path
       id="rect2-1"
       style="stroke-width:0.264583"
       d="m 19.999999,23.999999 h 4 v 4 h -4 z" />
    <path
       id="rect2-7"
       style="stroke-width:0.264583"
       d="m 20,27.999999 h 3.999999 v 4 H 20 Z" />
    <path
       id="rect2-2"
       style="stroke-width:0.264583"
       d="m 8.0000002,27.999999 h 3.9999988 v 4 H 8.0000002 Z" />
    <path
       id="rect2-16"
       style="stroke-width:0.264583"
       d="m 12,31.999999 h 4 v 4 h -4 z" />
    <path
       id="rect2-6"
       style="stroke-width:0.264583"
       d="m 16.000001,31.999997 h 4 v 4 h -4 z" />
    <path
       id="rect2-27"
       style="stroke-width:0.264583"
       d="m 20,19.999999 h 3.999999 v 4 H 20 Z" />
    <path
       id="rect2-3"
       style="stroke-width:0.264583"
       d="m 20,31.999997 h 3.999999 v 4 H 20 Z" />
    <path
       id="rect2-34"
       style="stroke-width:0.264583"
       d="m 27.999998,23.999998 h 4 v 4 h -4 z" />
    <path
       id="rect2-8-1"
       style="stroke-width:0.264583"
       d="m 31.999999,19.999999 h 4 v 4 h -4 z" />
    <path
       id="rect2-5-1"
       style="stroke-width:0.264583"
       d="m 36,19.999999 h 3.999999 v 4 H 36 Z" />
    <path
       id="rect2-1-3"
       style="stroke-width:0.264583"
       d="m 39.999998,23.999999 h 4 v 4 h -4 z" />
    <path
       id="rect2-7-8"
       style="stroke-width:0.264583"
       d="m 39.999999,27.999999 h 3.999999 v 4 h -3.999999 z" />
    <path
       id="rect2-2-7"
       style="stroke-width:0.264583"
       d="m 27.999999,27.999999 h 3.999999 v 4 h -3.999999 z" />
    <path
       id="rect2-16-4"
       style="stroke-width:0.264583"
       d="m 31.999999,31.999999 h 4 v 4 h -4 z" />
    <path
       id="rect2-6-2"
       style="stroke-width:0.264583"
       d="m 36,31.999997 h 4 v 4 h -4 z" />
    <path
       id="rect2-27-7"
       style="stroke-width:0.264583"
       d="m 27.999998,19.999999 h 3.999999 v 4 h -3.999999 z" />
    <path
       id="rect2-3-7"
       style="stroke-width:0.264583"
       d="m 27.999999,31.999999 h 3.999999 v 4 h -3.999999 z" />
    <path
       id="rect2-3-7-9"
       style="stroke-width:0.264583"
       d="m 28,16 h 3.999999 v 4 H 28 Z" />
    <path
       id="rect2-3-7-0"
       style="stroke-width:0.264583"
       d="m 28,12.000001 h 3.999999 v 4 H 28 Z" />
    <path
       id="rect2-3-7-02"
       style="stroke-width:0.264583"
       d="m 28,8.000002 h 3.999999 v 4 H 28 Z" />
    <path
       id="rect2-50"
       style="stroke-width:0.264583"
       d="m 47.999999,23.999998 h 3.999999 v 4 h -3.999999 z" />
    <path
       id="rect2-8-9"
       style="stroke-width:0.264583"
       d="m 51.999999,19.999999 h 4 v 4 h -4 z" />
    <path
       id="rect2-5-0"
       style="stroke-width:0.264583"
       d="m 56,19.999999 h 3.999999 v 4 H 56 Z" />
    <path
       id="rect2-5-0-0"
       style="stroke-width:0.264583"
       d="m 60,19.999999 h 3.999999 v 4 H 60 Z" />
    <path
       id="rect2-2-1"
       style="stroke-width:0.264583"
       d="m 47.999999,27.999999 h 3.999999 v 4 h -3.999999 z" />
    <path
       id="rect2-16-3"
       style="stroke-width:0.264583"
       d="m 51.999999,31.999999 h 4 v 4 h -4 z" />
    <path
       id="rect2-6-8"
       style="stroke-width:0.264583"
       d="m 56,31.999997 h 4 v 4 h -4 z" />
    <path
       id="rect2-5-0-8"
       style="stroke-width:0.264583"
       d="m 59.999999,31.999999 h 3.999999 v 4 h -3.999999 z" />
    <path
       id="rect2-34-3"
       style="stroke-width:0.264583"
       d="m 67.999998,23.999999 h 4 v 4 h -4 z" />
    <path
       id="rect2-8-1-7"
       style="stroke-width:0.264583"
       d="m 71.999999,20 h 4 v 4 h -4 z" />
    <path
       id="rect2-5-1-8"
       style="stroke-width:0.264583"
       d="m 76,20 h 3.999999 v 4 H 76 Z" />
    <path
       id="rect2-1-3-8"
       style="stroke-width:0.264583"
       d="m 79.999998,24 h 4 v 4 h -4 z" />
    <path
       id="rect2-7-8-2"
       style="stroke-width:0.264583"
       d="m 79.999999,28 h 3.999999 v 4 h -3.999999 z" />
    <path
       id="rect2-2-7-9"
       style="stroke-width:0.264583"
       d="m 67.999999,28 h 3.999999 v 4 h -3.999999 z" />
    <path
       id="rect2-16-4-1"
       style="stroke-width:0.264583"
       d="m 71.999999,32 h 4 v 4 h -4 z" />
    <path
       id="rect2-6-2-3"
       style="stroke-width:0.264583"
       d="m 76,31.999998 h 4 v 4 h -4 z" />
    <path
       id="rect2-27-7-5"
       style="stroke-width:0.264583"
       d="m 79.999996,19.999997 h 3.999999 v 4 h -3.999999 z" />
    <path
       id="rect2-3-7-98"
       style="stroke-width:0.264583"
       d="m 79.999999,31.999998 h 3.999999 v 4 h -3.999999 z" />
    <path
       id="rect2-3-7-9-4"
       style="stroke-width:0.264583"
       d="m 79.999998,15.999998 h 3.999999 v 4 h -3.999999 z" />
    <path
       id="rect2-3-7-0-0"
       style="stroke-width:0.264583"
       d="m 79.999998,11.999999 h 3.999999 v 4 h -3.999999 z" />
    <path
       id="rect2-3-7-02-7"
       style="stroke-width:0.264583"
       d="m 79.999998,8.0000007 h 3.999999 V 12 h -3.999999 z" />
    <path
       style="fill:#000000;stroke-width:0.264583"
       d="M 7.9999998,77.999996 C 18.000001,63.360744 23.999999,72.41228 23.999999,72.41228 l 5.999999,7.587718 -19.9999985,7.999997 V 75.429458 Z"
       id="path17" />
    <path
       style="fill:#000000;stroke-width:0.264583"
       d="m 41.999997,75.999998 v -12 h 14.000001 l -3.999999,2.377924 -8,-0.377925 z"
       id="path18" />
    <path
       style="fill:#000000;stroke-width:0.264583"
       d="m 41.999997,75.999998 12,1.999998 V 63.999998 l -1.999998,12 z"
       id="path19" />
    <path
       style="fill:#000000;stroke-width:0.264583"
       d="m 55.999998,63.999998 v 13.999998 l -2.000001,4 z"
       id="path20" />
  </g>
</svg>
