<?xml version="1.0" encoding="UTF-8" standalone="no"?>
<!-- Created with Inkscape (http://www.inkscape.org/) -->

<svg
   width="210mm"
   height="297mm"
   viewBox="0 0 210 297"
   version="1.1"
   id="svg1"
   inkscape:version="1.4 (86a8ad7, 2024-10-11)"
   sodipodi:docname="TestGlyphs.svg"
   xmlns:inkscape="http://www.inkscape.org/namespaces/inkscape"
   xmlns:sodipodi="http://sodipodi.sourceforge.net/DTD/sodipodi-0.dtd"
   xmlns="http://www.w3.org/2000/svg"
   xmlns:svg="http://www.w3.org/2000/svg">
  <sodipodi:namedview
     id="namedview1"
     pagecolor="#ffffff"
     bordercolor="#000000"
     borderopacity="0.25"
     inkscape:showpageshadow="2"
     inkscape:pageopacity="0.0"
     inkscape:pagecheckerboard="0"
     inkscape:deskcolor="#d1d1d1"
     inkscape:document-units="mm"
     inkscape:zoom="0.72604517"
     inkscape:cx="397.3582"
     inkscape:cy="-382.20762"
     inkscape:window-width="1920"
     inkscape:window-height="1017"
     inkscape:window-x="-8"
     inkscape:window-y="367"
     inkscape:window-maximized="1"
     inkscape:current-layer="layer1" />
  <defs
     id="defs1">
    <rect
       x="71.620888"
       y="115.69528"
       width="137.73248"
       height="93.658084"
       id="rect2" />
  </defs>
  <g
     inkscape:label="Layer 1"
     inkscape:groupmode="layer"
     id="layer1">
    <text
       xml:space="preserve"
       transform="scale(0.26458333)"
       id="text2"
       style="fill:#000000;text-align:start;writing-mode:lr-tb;text-orientation:auto;direction:ltr;white-space:pre;shape-inside:url(#rect2)" />
    <path
       style="fill:#000000;stroke-width:0.95883"
       id="path12"
       d="m -308.82195,-353.64171 c -1.37614,0.85965 -2.90264,1.51719 -4.12842,2.57898 -9.23713,8.00121 -15.27575,20.48299 -18.98213,31.84428 -1.13075,3.46612 -1.91345,7.03551 -2.87018,10.55328 -2.22042,12.42649 -3.91319,25.99415 0.65537,38.18106 2.75549,7.35046 4.75047,8.69143 9.72802,14.60735 2.34096,1.93497 4.45322,4.18342 7.02287,5.80493 6.58969,4.15824 13.39327,7.99894 20.36762,11.47908 7.28162,3.63346 19.94598,6.34573 28.08717,6.97125 2.90091,0.2229 5.81865,0.0668 8.72797,0.10027 2.73213,-0.38584 5.5096,-0.5308 8.1964,-1.15751 9.8862,-2.30599 18.6069,-8.41489 25.1526,-16.01294 1.72265,-1.9996 3.17227,-4.2175 4.75841,-6.32625 6.90595,-11.19076 11.98686,-24.06973 11.42704,-37.43777 -0.10717,-2.55916 -0.62499,-5.08479 -0.93749,-7.62718 -3.16925,-13.04793 -10.83359,-24.08603 -20.7775,-32.98102 -1.99388,-1.78356 -4.14476,-3.38481 -6.21715,-5.07722 -12.49632,-8.73179 -25.82291,-17.55117 -41.06668,-20.46188 -7.20132,-1.37506 -8.13566,-0.87273 -15.32202,-0.42894 -2.29905,0.6328 -4.68823,1.00184 -6.89714,1.89839 -10.34501,4.19877 -15.9914,13.18445 -20.54927,22.74584 -2.69133,6.28138 -3.81165,11.77694 -3.09092,18.52558 0,0 12.85688,6.32957 12.85688,6.32957 v 0 c -0.95024,-6.66617 0.0349,-11.59674 2.59991,-17.87971 4.32198,-9.26797 9.68485,-17.91603 19.80857,-21.75384 2.15403,-0.81658 4.47105,-1.11662 6.70657,-1.67494 2.46809,-0.0924 4.93768,-0.4028 7.40429,-0.27712 5.22405,0.2662 10.50106,1.54378 15.41218,3.26685 2.55668,0.89702 4.78597,3.09548 7.49616,3.13998 1.95501,0.0322 -6.46666,-4.35639 -4.97357,-3.09855 2.02322,1.70442 4.384,2.96565 6.57599,4.44848 2.08654,1.653 4.24817,3.21602 6.25959,4.95899 9.943,8.61595 17.74381,19.31233 21.15042,32.11562 0.94137,6.73247 1.54012,8.0592 0.84669,14.87393 -1.06711,10.48696 -5.22125,20.39237 -10.80464,29.2419 -1.5582,2.05123 -2.98147,4.21153 -4.67461,6.1537 -6.41764,7.3616 -14.94769,13.18527 -24.61291,15.26588 -2.64342,0.56904 -5.36712,0.66791 -8.05067,1.00186 -2.8638,-0.0725 -5.73839,0.0401 -8.59141,-0.21772 -6.18859,-0.55927 -12.70346,-1.97891 -18.60657,-3.87063 -3.11343,-0.99775 -5.9534,-2.8889 -9.17045,-3.47568 -1.39768,-0.25495 4.56185,3.36824 3.48945,2.43947 -2.27445,-1.96986 -4.73651,-3.71375 -7.10477,-5.57063 -4.99909,-5.57085 -7.13983,-6.97278 -9.98669,-14.01902 -4.80953,-11.90398 -3.19337,-25.36102 -1.0959,-37.59944 0.93489,-3.47611 1.68964,-7.00535 2.80468,-10.42831 3.64561,-11.19123 9.39474,-23.27269 18.80374,-30.86434 1.23299,-0.99483 2.75219,-1.5736 4.12828,-2.36041 z" />
    <path
       style="fill:#000000;stroke-width:0.95883"
       id="path13"
       d="m -217.16031,-326.4153 c -2.1635,13.34422 -3.64883,26.76889 -5.02532,40.21116 -1.18977,11.39692 -1.86085,22.83847 -2.32866,34.28474 -0.3021,4.90004 0.096,9.89327 2.6418,14.17868 4.79351,5.65975 11.94977,8.94534 18.76686,11.69848 0,0 -11.30615,-8.91039 -11.30615,-8.91039 v 0 c -5.35824,-2.46875 -3.04951,-1.47088 9.27761,5.65454 2.08306,1.20407 -5.48289,-3.03985 -3.51373,-2.6993 -3.02643,-3.77078 -3.34392,-8.74107 -3.15007,-13.41189 0.31637,-11.45206 0.92365,-22.89764 2.09663,-34.29748 1.36008,-13.38005 2.74331,-26.758 5.22189,-39.99042 z" />
    <path
       style="fill:#000000;stroke-width:0.95883"
       id="path14"
       d="m -112.34694,-382.2178 c -0.49791,23.10907 -1.5158,46.20096 -2.80626,69.27835 -1.47277,25.11234 -2.79492,50.32133 -0.64528,75.43982 0.3755,4.38761 0.99387,8.75122 1.49078,13.12682 1.42984,9.62318 3.29804,19.19999 6.07433,28.53492 0.93124,3.13126 2.27814,7.29204 3.91622,10.24793 0.61807,1.11531 1.46127,2.09112 2.19188,3.13668 6.22363,5.08515 5.75761,5.00557 18.090978,9.90231 1.165811,0.46287 2.516855,-0.01 3.760724,-0.17565 4.813117,-0.64163 9.345337,-2.51496 13.837693,-4.23398 9.718777,-4.13317 18.771128,-9.78927 25.663979,-17.88524 1.523387,-1.78925 2.828104,-3.75241 4.242174,-5.62861 4.335988,-6.99908 7.981115,-14.57473 9.933453,-22.60706 0.88103,-3.62475 1.034276,-5.9323 1.444639,-9.56805 0.0036,-3.702 0.615273,-7.87272 -1.279376,-11.27551 -1.056168,-1.8968 -2.068334,-2.74892 -3.56333,-4.31615 -4.710953,-4.12294 -10.114727,-7.38293 -15.427882,-10.67075 -4.728162,-2.91498 -5.688338,-3.67249 -14.484661,-4.97275 -0.780209,-0.11532 0.387564,1.53051 0.70001,2.25212 1.048871,2.42271 2.757962,4.6463 4.285451,6.77653 6.32572,8.07213 16.067443,13.3276 26.07554,15.37915 7.845731,1.59378 15.464224,0.28848 23.0578845,-1.79657 5.62636436,-1.94988 10.6038009,-5.18688 15.4202218,-8.60053 0,0 -12.052434,-7.64042 -12.052434,-7.64042 v 0 c -4.7055796,3.31149 -9.5799083,6.42862 -15.1169243,8.19168 -7.513679,1.91228 -15.040101,2.97807 -22.71672,1.18789 -6.287999,-1.60208 -12.477719,-5.36003 4.132495,4.09053 0.726258,0.4132 -1.38263,-0.94073 -2.035333,-1.46169 -1.964319,-1.56785 -1.938216,-1.73469 -3.578869,-3.67828 -1.560128,-2.02838 -3.165529,-4.16233 -4.423376,-6.39692 -0.338369,-0.60124 -0.269388,-1.50619 -0.844869,-1.88895 -4.246349,-2.82475 -8.866175,-5.04816 -13.320737,-7.53425 -0.512019,-0.28573 0.994195,0.62153 1.491328,0.93229 5.374077,3.1512 10.649546,6.55238 15.575756,10.36317 5.591765,5.20523 5.605633,6.76967 5.470286,14.47844 -0.345993,3.55734 -0.457198,5.82005 -1.277343,9.36656 -1.826067,7.89661 -5.351748,15.34695 -9.600566,22.21062 -1.385715,1.82661 -2.661025,3.74181 -4.15711,5.47983 -6.817916,7.92041 -15.822815,13.34626 -25.406971,17.30523 -4.397707,1.61102 -8.883855,3.44682 -13.62349,3.76703 -1.178664,0.0796 -4.347097,-1.00594 -3.541074,-0.14538 2.492784,2.66152 6.101932,4.00726 9.102996,6.08374 0.86796,0.60055 -1.80058,-1.10266 -2.700852,-1.65399 -0.787942,-0.96436 -1.703862,-1.83764 -2.363827,-2.89308 -1.78014,-2.84687 -3.206881,-7.03646 -4.182342,-10.11003 -2.94922,-9.2928 -4.924362,-18.86022 -6.450432,-28.47745 -0.52814,-4.36324 -1.18545,-8.71287 -1.58445,-13.0897 -2.28515,-25.06686 -0.97455,-50.24578 0.54201,-75.31118 1.34578,-22.98565 2.38473,-45.98385 3.411387,-68.98533 z" />
    <path
       style="fill:#000000;stroke-width:0.95883"
       id="path15"
       d="m 179.54573,-272.1322 c -4.20224,-4.28817 -9.12997,-7.73279 -14.41107,-10.5791 -6.31359,-3.4028 -12.50622,-7.08416 -19.10267,-9.90437 -5.48532,-2.34514 -12.10185,-1.85897 -17.81542,-1.97031 -3.83086,1.02485 -7.79769,1.63718 -11.4926,3.07458 -18.106113,7.04364 -32.104895,22.39871 -42.231748,38.47246 -2.273353,3.60836 -4.056543,7.50114 -6.084832,11.25171 -4.078181,10.1647 -9.110875,22.11534 -4.438225,33.05343 2.185239,5.11539 3.958663,5.7447 8.104482,9.175 6.040648,3.29601 11.922859,6.89828 18.121981,9.88801 2.056971,0.99204 4.337695,1.44798 6.551833,2.01177 6.714989,1.70984 13.816559,2.609 20.744629,2.67204 2.4254,0.0221 4.84808,-0.16774 7.2721,-0.25162 8.81862,-0.87384 4.56127,-0.37203 12.7755,-1.47572 0,0 -11.57617,-8.14671 -11.57617,-8.14671 v 0 c -8.1152,1.08264 -3.9074,0.60495 -12.62738,1.3975 -7.24461,0.14549 -13.884341,-2e-4 -21.044113,-1.31713 -2.252586,-0.41432 -4.499109,-0.88484 -6.704933,-1.50021 -2.181863,-0.6087 -6.025981,-4.38647 -6.440047,-2.16697 -0.447758,2.39999 4.050225,2.74795 6.07532,4.12194 -4.179183,-2.99475 -6.11689,-3.59646 -8.47941,-8.35978 -5.185868,-10.45572 -0.185522,-22.3783 3.617171,-32.27844 1.972633,-3.71534 3.693196,-7.57485 5.917936,-11.14604 9.88847,-15.87315 23.815586,-31.03783 41.833226,-37.57956 3.66081,-1.32913 7.58324,-1.78747 11.37482,-2.68119 3.15645,0.14831 6.33995,0.008 9.46932,0.44489 2.7604,0.38549 5.73565,3.4575 8.11498,2.01076 1.81924,-1.10619 -7.14307,-3.25036 -5.09729,-3.8457 2.27162,-0.66104 4.15886,2.26036 6.14623,3.54045 4.05985,2.61501 4.8589,3.55003 8.17314,6.55135 z" />
    <path
       style="fill:#000000;stroke-width:0.95883"
       id="path16"
       d="m -292.83557,-39.38129 c -4.36821,-0.547985 -7.01946,-1.106786 -11.62142,-0.555219 -9.52508,1.141548 -18.52427,5.257206 -25.78594,11.496366 -2.93966,2.525745 -5.35506,5.60038 -8.03259,8.40057 -2.28223,3.433182 -4.88906,6.672838 -6.84668,10.2995095 -7.21723,13.3706716 -10.7733,31.4888355 -5.27378,46.1416965 1.11823,2.979427 3.1524,5.532447 4.7286,8.298671 10.50348,7.853417 12.9346,10.630203 29.39281,14.627033 3.56728,0.866271 7.39341,-0.212336 10.96261,-1.070722 7.46232,-1.794761 14.12165,-5.563375 19.76515,-10.693108 2.71103,-2.464251 4.80012,-5.531832 7.20019,-8.29773 1.63206,-3.095941 3.6075,-6.035108 4.89618,-9.287895 3.51002,-8.859787 3.85966,-18.449617 0.0775,-27.2888216 -3.00406,-7.0207502 -5.22381,-8.2830441 -10.44672,-13.5635824 -12.84054,-7.716574 -27.25068,-18.927716 -42.31776,-10.623764 -6.31392,3.479809 -7.15192,6.267555 -11.13312,12.1081603 -1.12381,2.8659165 -2.48434,5.650516 -3.37141,8.59771325 -2.57123,8.54269405 -3.72459,20.36208545 -2.09035,29.25431945 0.26485,1.441061 0.8109,2.816468 1.21634,4.224684 3.75966,6.642018 12.16339,13.503426 20.01768,11.390958 2.59113,-0.69691 3.97793,-2.054845 6.08535,-3.617086 0,0 -12.07742,-7.650956 -12.07742,-7.650956 v 0 c -1.91974,1.303314 -3.23349,2.564884 -5.62281,2.867001 -0.89191,0.11286 -3.37213,-0.827566 -2.68556,-0.249232 17.31295,14.58406 9.70931,6.256233 7.18803,3.322782 -0.46488,-1.336883 -1.08661,-2.629526 -1.39462,-4.010684 -1.91076,-8.568088 -0.86251,-20.462828 1.58282,-28.7471738 0.841,-2.8492045 2.16036,-5.53599216 3.24055,-8.3039521 1.57868,-2.2738002 2.83297,-4.8091675 4.73607,-6.8213282 3.48179,-3.6812929 7.94067,-5.9831989 12.96704,-6.6801809 2.55824,-0.354858 6.18304,2.194183 7.74729,0.1465 1.27892,-1.674304 -6.44067,-4.195926 -4.36366,-4.576032 2.74082,-0.501575 4.87528,2.690875 7.31291,4.036295 5.31904,4.982581 7.57118,6.149884 10.74849,12.9240792 3.96815,8.4602918 3.84606,17.7390708 0.50377,26.3791428 -1.22365,3.163222 -3.13872,6.015827 -4.70808,9.023723 -2.33749,2.675718 -4.36471,5.655688 -7.01249,8.027192 -5.52116,4.944961 -12.05843,8.519796 -19.36024,10.069738 -3.50867,0.744767 -7.66421,-1.141331 -10.73931,0.699442 -1.41493,0.846955 3.77165,4.623744 2.12978,4.454202 -3.04687,-0.314706 -5.12027,-3.35154 -7.6804,-5.027328 -1.65551,-2.644935 -3.77753,-5.051599 -4.96652,-7.934842 -5.8482,-14.181599 -2.41458,-32.155541 4.65439,-45.1968931 1.92522,-3.5517932 4.50562,-6.7101324 6.75843,-10.0651809 2.64221,-2.709287 5.02389,-5.697613 7.92662,-8.127861 7.21823,-6.043355 16.10937,-9.851471 25.50007,-10.671766 4.653,-0.406477 7.22908,0.241997 11.61167,0.946792 z" />
    <path
       style="fill:#000000;stroke-width:0.95883"
       id="path17"
       d="m -265.81275,-168.34626 c -1.59267,30.77807 -4.46376,61.46925 -7.5425,92.128821 -3.31477,33.289818 -7.50944,66.484791 -10.79292,99.777069 -0.77887,8.575973 -1.5814,17.175821 -1.73126,25.79285 -0.0726,4.178274 0.10035,7.978974 1.15103,12.004308 5.34307,4.976576 5.25249,5.270916 17.38328,8.473061 1.37213,0.362201 2.68293,-0.956921 3.93256,-1.62775 6.05268,-3.249242 10.68072,-8.084092 15.43169,-12.914566 6.70267,-8.25718 3.55219,-4.115405 9.48355,-12.401126 0,0 -12.13193,-7.131005 -12.13193,-7.131005 v 0 c -5.81721,8.196626 -2.71238,4.116635 -9.34898,12.213822 -4.2456,4.213687 -5.83951,6.188228 -10.63343,9.538754 -1.47378,1.030027 -3.0191,1.975988 -4.64696,2.741879 -1.16885,0.549939 -4.44915,0.137458 -3.69207,1.18152 3.75196,5.173394 14.46513,8.408854 7.19654,6.04227 -1.45806,-4.199074 -1.5479,-7.179333 -1.55441,-11.691014 -0.0123,-8.639022 0.66729,-17.273379 1.3801,-25.87489 3.01423,-33.3734506 7.04723,-66.644604 10.36519,-99.988645 3.14385,-30.551808 6.0512,-61.125828 8.46423,-91.744478 z" />
    <path
       style="fill:#000000;stroke-width:0.95883"
       id="path18"
       d="m -147.02201,16.289322 c 18.48137,-0.31579 37.1749,-2.624136 54.789132,-8.4211887 3.952491,-1.3008182 7.756201,-3.0136109 11.634301,-4.5203983 3.185134,-1.748387 6.498318,-3.28299144 9.555438,-5.245161 6.908899,-4.4343789 17.16304,-13.047176 16.326049,-22.432702 -0.16628,-1.865406 -1.159168,-3.563007 -1.738752,-5.344528 -1.258101,-1.56716 -2.287439,-3.347777 -3.774339,-4.701553 -1.617382,-1.472604 -3.48589,-2.685992 -5.434888,-3.683246 -12.31231,-6.299966 -15.502962,-10.348849 -27.050638,-8.613991 -7.664423,1.151424 -11.448203,3.501151 -18.504523,6.70467 -15.77515,9.4888 -28.3221,23.250032 -35.81303,40.08459587 -1.24582,2.79971983 -2.12996,5.74572333 -3.19494,8.61858503 -2.46627,9.1896851 -3.65298,19.4967541 1.56926,28.0722571 2.80547,4.606888 4.97041,5.60501 9.1959,8.801114 6.09565,3.288164 12.0371,6.877505 18.28696,9.864493 2.07424,0.991322 4.37059,1.442001 6.59487,2.027281 5.96891,1.570596 12.19897,2.492249 18.385639,2.324732 1.886008,-0.051 3.759853,-0.318323 5.639761,-0.477448 7.181737,-1.267069 14.549939,-2.993644 21.005452,-6.529376 3.021904,-1.655133 3.794198,-2.578377 6.238442,-4.770137 0,0 -12.166107,-7.520697 -12.166107,-7.520697 v 0 c -0.843018,0.747515 -1.627112,1.566762 -2.52909,2.24251 -6.883267,5.156899 -15.804917,6.951551 -24.093647,8.350941 -1.846,0.118648 -3.68826,0.340388 -5.53804,0.355581 -6.09527,0.05028 -12.25159,-0.927766 -18.10131,-2.595487 -2.19246,-0.62507 -5.83281,-4.346334 -6.48563,-2.169296 -0.68631,2.288667 3.94181,2.719886 5.91271,4.079811 -4.12516,-2.817517 -6.59871,-3.92481 -9.46789,-8.124679 -5.53782,-8.10623 -4.50377,-18.226466 -2.21479,-27.174768 1.02261,-2.831082 1.86242,-5.7344739 3.06782,-8.4932097 7.26415,-16.6250863 19.64921,-30.1472863 35.2986,-39.2937083 7.0107,-3.034555 10.686615,-5.287882 18.28249,-6.148112 2.622686,-0.296981 6.684166,2.499737 7.916853,0.173992 1.138147,-2.147158 -5.63083,-2.476839 -5.414303,-4.895476 0.359427,-4.015785 10.247751,9.151811 9.509257,7.518599 0.678009,1.581485 1.763513,3.045986 2.034026,4.74449 0.608375,3.820053 -1.174852,7.492266 -3.298081,10.476685 -5.318238,7.475301 -13.450456,12.0677917 -21.452665,16.1119359 -3.83417,1.4796214 -7.593188,3.169372 -11.502507,4.43882813 -17.65312,5.73233937 -36.47019,7.95282047 -54.97772,7.66448527 z" />
    <path
       style="fill:#000000;stroke-width:0.95883"
       id="path19"
       d="M 79.098506,18.670629 C 93.996144,0.69042838 107.61401,-18.530181 118.5263,-39.19735 c 3.04673,-5.770285 5.69004,-11.743247 8.53506,-17.614889 12.37432,-31.816093 21.07422,-65.136441 25.47309,-98.992551 0.53413,-4.11079 0.85656,-8.24614 1.28486,-12.36921 0.63865,-14.85384 3.59887,-19.26179 -15.8572,-25.38897 -2.31275,-0.72834 -4.66909,1.4133 -6.81665,2.53661 -7.54367,3.94581 -11.32065,7.90617 -17.88853,13.52112 -15.766691,15.35036 -26.889808,34.3846 -33.568493,55.28005 -5.472791,17.12265 -5.830511,23.967346 -8.684211,41.93333 -0.686141,7.956438 -1.622501,15.895368 -2.058459,23.869277 -0.896315,16.394809 -0.680587,35.304801 -0.298796,51.6705265 0.60449,25.9147895 1.94348,51.8211865 3.175803,77.7115955 1.768632,33.814111 4.618664,67.556161 8.579033,101.182431 0.364872,2.91601 1.039033,8.95803 1.687271,12.36249 0.09294,0.48743 -0.02541,1.21458 0.42405,1.42706 4.287447,2.0249 8.866392,3.36955 13.29957,5.05435 0,0 -12.675548,-6.88626 -12.675548,-6.88626 v 0 c 4.167094,2.60826 8.21761,5.41127 12.501281,7.82473 0.408947,0.23042 -0.607793,-0.74686 -0.737405,-1.19678 C 94.077868,189.87007 93.144267,182.28263 92.856835,180.2738 88.461996,146.58073 85.408906,112.73529 83.488698,78.810418 82.175304,52.923445 80.797576,27.018205 80.211275,1.1017518 79.848073,-14.952488 79.671228,-34.294566 80.580794,-50.388488 c 0.44823,-7.931623 1.402235,-15.82682 2.103334,-23.740212 2.891421,-17.935309 3.21672,-24.514387 8.740194,-41.58219 6.687506,-20.66471 17.764478,-39.46815 33.535338,-54.51348 5.97759,-4.94867 10.73146,-9.67979 17.8559,-12.88112 1.95978,-0.8806 6.81011,0.53287 6.26204,-1.53836 -0.83841,-3.16861 -4.87567,-5.96156 -8.13933,-5.55654 -5.20784,0.64632 10.13963,16.81327 0.65346,15.67319 -0.35725,4.1355 -0.59712,8.28274 -1.07192,12.4065 -3.89364,33.81566 -12.47914,67.117488 -25.08934,98.729203 -2.84814,5.832973 -5.49181,11.769545 -8.54439,17.498954 -10.956731,20.565016 -24.65069,39.7187057 -40.007922,57.229886 z" />
    <path
       style="fill:#000000;stroke-width:0.95883"
       id="path20"
       d="m 31.820664,46.008393 c 4.248854,9.452445 9.82548,18.566492 17.847257,25.353492 9.528209,8.061521 21.98821,12.983114 32.754225,18.471502 15.473518,5.286399 31.664914,7.495015 47.947104,8.220176 10.91791,0.486238 17.99839,0.03617 28.70105,-0.350517 0,0 -11.1576,-8.013229 -11.1576,-8.013229 v 0 c -10.75208,0.417075 -17.42804,0.888445 -28.42692,0.349431 C 103.2013,89.24109 87.035328,86.852839 71.642952,81.316376 71.434195,86.228818 71.933761,84.326044 62.557709,76.695815 54.560584,70.187745 48.907644,61.301443 44.838757,51.978678 Z" />
    <path
       style="fill:#00d455;stroke-width:1.37732"
       d="m -792.38567,-866.28157 c -16.82698,-8.18986 -30.95817,-17.92541 -40.32676,-27.78278 -10.20511,-10.73752 -13.80439,-21.1349 -14.92028,-43.10086 l -0.79935,-15.73495 -6.01311,7.80493 c -14.89822,19.3377 -41.46995,40.91622 -64.62781,52.48328 -41.21224,20.58503 -92.42632,22.44454 -157.66322,5.72455 -25.1552,-6.44718 -40.3275,-12.51559 -66.4434,-26.57507 -57.3333,-30.86544 -75.5191,-44.44177 -99.231,-74.07939 -21.8095,-27.25994 -32.6331,-67.50954 -30.3915,-113.01694 4.2078,-85.4245 35.9641,-170.3293 80.6145,-215.5342 9.8135,-9.9353 15.4932,-14.4794 22.1502,-17.7215 4.9239,-2.398 12.6714,-6.5101 17.2166,-9.1381 24.5317,-14.1839 61.2801,-18.3852 97.1817,-11.1103 28.5745,5.7902 55.69096,16.4112 87.51995,34.2797 17.87603,10.0355 60.29284,38.1456 74.23538,49.1967 22.62619,17.9338 47.69679,44.596 61.19554,65.0805 3.3564,5.0934 6.3266,9.0367 6.60043,8.7628 0.27383,-0.2738 1.65604,-8.0606 3.07159,-17.3039 1.41554,-9.2434 2.82439,-17.0568 3.13077,-17.3631 0.38697,-0.387 38.61306,19.0065 46.05373,23.3647 0.12364,0.072 -0.31518,2.9208 -0.97518,6.3296 -2.35565,12.1671 -9.55819,63.0797 -12.27544,86.7715 -8.22792,71.7395 -12.04633,121.19477 -13.34596,172.85426 -0.92491,36.7639 -0.0551,44.88026 6.16217,57.50331 2.14539,4.35579 3.77455,7.91962 3.62034,7.91962 -0.15419,0 -3.17976,-1.62052 -6.7235,-3.60116 -3.54374,-1.98063 -6.73388,-3.31043 -7.0892,-2.95509 -0.35533,0.35532 5.56501,5.46476 13.1563,11.35431 18.51509,14.36453 18.38009,15.06071 -1.08349,5.58758 z m -218.34263,-40.78181 c 53.65262,-5.98262 101.5861,-40.52045 133.76601,-96.38332 19.35187,-33.5939 30.11429,-66.118 33.52753,-101.3201 3.76337,-38.8135 -7.74514,-80.2288 -32.67657,-117.592 -11.39277,-17.0737 -21.63494,-29.1004 -39.30838,-46.1573 -17.75856,-17.1391 -38.09396,-32.9842 -45.26431,-35.2695 -2.65136,-0.845 -8.53942,-3.5682 -13.08459,-6.0514 -10.22205,-5.5848 -31.16919,-12.3556 -47.16119,-15.244 -19.2449,-3.4758 -47.5061,-2.8927 -64.0217,1.3212 -35.6296,9.0906 -60.5383,31.6074 -81.6811,73.8376 -12.5234,25.0139 -18.1822,47.8458 -16.8815,68.1132 l 0.645,10.05 -7.5138,-3.323 c -4.1326,-1.8276 -9.8765,-4.5283 -12.7641,-6.0015 l -5.2503,-2.6784 -2.1159,6.5179 c -12.379,38.1327 -19.521,94.5463 -16.2974,128.7315 2.2012,23.3433 7.0609,41.3727 16.0629,59.59332 6.1353,12.41816 9.7983,17.69684 20.3102,29.26904 11.869,13.06622 27.2335,26.51261 30.2946,26.51261 0.7145,0 7.9225,2.83 16.0178,6.28891 20.9562,8.95397 52.514,16.76455 82.2077,20.34642 9.4035,1.13432 38.882,0.81114 51.1891,-0.56118 z"
       id="path21"
       transform="scale(0.26458333)" />
  </g>
</svg>
